<svg xmlns="http://www.w3.org/2000/svg" xmlns:xlink="http://www.w3.org/1999/xlink" width="1024" height="670" viewBox="0 0 1024 670">
    <defs>
        <linearGradient id="prefix__b" x1="26.361%" x2="26.361%" y1="0%" y2="100%">
            <stop offset="0%" stop-color="#004182"/>
            <stop offset="100%" stop-color="#118EF0"/>
        </linearGradient>
        <linearGradient id="prefix__c" x1="19.616%" x2="67.634%" y1="28.595%" y2="73.242%">
            <stop offset="0%" stop-color="#118EF0"/>
            <stop offset="100%" stop-color="#004182"/>
        </linearGradient>
        <linearGradient id="prefix__d" x1="80.344%" x2="-4.617%" y1="58.147%" y2="23.09%">
            <stop offset="0%" stop-color="#004182"/>
            <stop offset="100%" stop-color="#118EF0"/>
        </linearGradient>
        <linearGradient id="prefix__f" x1="38.42%" x2="15.234%" y1="95.463%" y2="-40.106%">
            <stop offset="0%" stop-color="#118EF0"/>
            <stop offset="100%" stop-color="#004182"/>
        </linearGradient>
        <linearGradient id="prefix__g" x1="69.391%" x2="25.931%" y1="0%" y2="61.257%">
            <stop offset="0%" stop-color="#118EF0"/>
            <stop offset="100%" stop-color="#004182"/>
        </linearGradient>
        <path id="prefix__a" d="M300 44H1324V714H300z"/>
        <path id="prefix__e" d="M370.098 161.547c92.852 7.507 158.835 120.5 197.951 338.978 22.333 124.737 34.31 222.35 78.145 270.843 87.788 97.118 216.347 38.132 202.82-108.218-13.522-146.283-98.229-329.237-254.121-548.862-18.826-8.791-32.478-14.708-40.957-17.75C524.06 85.82 418.264 110.89 366.054 143.85c-9.54 6.023-6.945 16.809 4.044 17.697z"/>
    </defs>
    <g fill="none" fill-rule="evenodd" transform="translate(-300 -44)">
        <use fill="url(#prefix__b)" xlink:href="#prefix__a"/>
        <path fill="url(#prefix__c)" d="M300 596c546.667 27.333 820-156.667 820-552h204v670H300V596z" opacity=".703"/>
        <circle cx="1222.5" cy="690.5" r="178.5" fill="url(#prefix__d)" opacity=".255"/>
        <use fill="url(#prefix__f)" xlink:href="#prefix__e"/>
        <path fill="url(#prefix__g)" d="M0 823c127.045-257.294 234.575-439.511 322.59-546.65C410.607 169.21 501.41 115.241 595 114.444 491.85-14.6 388.702-34.515 285.553 54.702c-79.976 69.174-194.244 230.232-264.644 500.05C7.31 606.874.341 696.29 0 823z"/>
    </g>
</svg>
